# xmcd
# 
# Track frame offsets:
#     150
#     37258
#     57018
#     94598
#     119353
#     162270
#     194030
#     205408
# 
# Disc length: 3429
# 
# Revision: 87
# Processed by: cddbd v1.5.2PL0 Copyright (c) Steve Scherf et al.
# Submitted via: fre:ac v1.1beta1pre5
# 
DISCID=720d6308
DTITLE=Dream Theater - Images and Words
DYEAR=1992
DGENRE=Heavy Metal
TTITLE0=Pull Me Under
TTITLE1=Another Day
TTITLE2=Take the Time
TTITLE3=Surrounded
TTITLE4=Metropolis Part I "The Miracle and the Sleeper"
TTITLE5=Under a Glass Moon
TTITLE6=Wait for Sleep
TTITLE7=Learning to Live
EXTD=
EXTT0=Dream Theater Moore
EXTT1=Dream Theater Petrucci
EXTT2=Dream Theater
EXTT3=Dream Theater Moore
EXTT4=Dream Theater Petrucci
EXTT5=Dream Theater Petrucci
EXTT6=Kevin Moore
EXTT7=Dream Theater Muying
PLAYORDER=
